<svg xmlns="http://www.w3.org/2000/svg" width="48" height="48" fill="none" id="duckduckgo"><path fill="#DE5833" d="M24.153 47.592c13.038 0 23.608-10.57 23.608-23.608S37.19.377 24.153.377.546 10.947.546 23.984c0 13.038 10.57 23.608 23.607 23.608Z"></path><mask id="a" width="48" height="48" x="0" y="0" maskUnits="userSpaceOnUse"><path fill="#fff" fill-rule="evenodd" d="M47.854 23.919c0 13.069-10.631 23.702-23.702 23.702C11.085 47.62.453 36.987.453 23.919c0-13.068 10.632-23.7 23.7-23.7 13.07 0 23.701 10.632 23.701 23.7Z" clip-rule="evenodd"></path></mask><g mask="url(#a)"><path fill="#D5D7D8" d="M33.828 59.15c-.832-3.824-5.66-12.48-7.491-16.14-1.83-3.66-3.664-8.82-2.829-12.148.151-.606-1.586-5.22-1.086-5.546 3.884-2.533 4.907.277 6.462-.86.8-.587 1.888.484 2.164-.488.996-3.493-1.387-9.582-4.048-12.243-.87-.867-2.202-1.412-3.706-1.702-.579-.79-1.512-1.55-2.833-2.252-1.471-.783-4.671-1.817-6.331-2.093-1.15-.189-1.41.133-1.901.213.458.04 2.63 1.114 3.053 1.176-.423.286-1.665-.012-2.457.343-.4.18-.698.866-.695 1.19 2.266-.228 5.803-.007 7.892.924-1.662.189-4.19.4-5.278.971-3.16 1.666-4.557 5.555-3.725 10.216.833 4.65 4.495 21.623 5.66 27.29 1.165 5.66-2.496 9.318-4.826 10.317l2.496.168-.831 1.83c2.993.332 6.32-.664 6.32-.664-.663 1.83-5.157 2.498-5.157 2.498s2.165.664 5.657-.668c3.498-1.33 5.66-2.163 5.66-2.163l1.663 4.326 3.164-3.16 1.331 3.328c.007 0 2.504-.835 1.672-4.663Z"></path><path fill="#fff" d="M34.833 58.374c-.829-3.826-5.657-12.481-7.49-16.144-1.832-3.663-3.662-8.821-2.83-12.148.155-.605.158-3.078.66-3.406 3.882-2.536 3.606-.085 5.163-1.22.804-.587 1.446-1.296 1.726-2.268.998-3.495-1.388-9.581-4.05-12.244-.867-.867-2.2-1.413-3.702-1.701-.578-.793-1.51-1.552-2.83-2.254-2.488-1.32-5.572-1.848-8.43-1.33.457.041 1.503.987 1.924 1.049-.638.432-2.332.376-2.321 1.337 2.268-.228 4.755.131 6.846 1.06-1.662.189-3.21.6-4.297 1.173-3.164 1.663-3.995 4.99-3.164 9.653.834 4.66 4.497 21.634 5.657 27.289 1.166 5.658-2.493 9.318-4.823 10.317l2.496.166-.831 1.834c2.993.332 6.32-.665 6.32-.665-.663 1.835-5.157 2.495-5.157 2.495s2.162.665 5.657-.666c3.5-1.331 5.663-2.164 5.663-2.164l1.663 4.326 3.163-3.163 1.334 3.33c-.007.003 2.487-.83 1.653-4.656Z"></path><path fill="#2D4F8E" d="M15.702 20.165a1.747 1.747 0 1 1 3.496 0c0 .966-.783 1.748-1.747 1.748a1.746 1.746 0 0 1-1.749-1.748Z"></path><path fill="#fff" d="M17.772 19.583a.453.453 0 1 1 .907-.002.453.453 0 0 1-.907.002Z"></path><path fill="#2D4F8E" d="M27.63 19.128a1.503 1.503 0 1 1 3.006.005 1.503 1.503 0 0 1-3.005-.005Z"></path><path fill="#fff" d="M29.412 18.63a.39.39 0 0 1 .386-.39c.221 0 .39.175.39.39 0 .216-.169.388-.39.388a.388.388 0 0 1-.386-.389Z"></path><path fill="url(#b)" d="M17.947 15.1s-1.317-.595-2.598.21c-1.278.804-1.231 1.626-1.231 1.626s-.68-1.516 1.132-2.258c1.814-.743 2.697.422 2.697.422Z"></path><path fill="url(#c)" d="M30.036 14.98s-.947-.54-1.681-.531c-1.51.02-1.921.687-1.921.687s.253-1.59 2.184-1.271c1.046.174 1.418 1.115 1.418 1.115Z"></path></g><path fill="#FDD20A" d="M22.8 26.905c.175-1.057 2.907-3.057 4.842-3.178 1.939-.122 2.543-.095 4.158-.482 1.62-.386 5.786-1.425 6.939-1.957 1.155-.534 6.048.264 2.599 2.186-1.492.835-5.513 2.369-8.387 3.225-2.87.859-4.611-.82-5.567.591-.76 1.123-.154 2.66 3.277 2.979 4.632.429 9.074-2.087 9.563-.75.49 1.336-3.981 3.003-6.704 3.056-2.72.052-8.202-1.798-9.026-2.37-.824-.572-1.922-1.907-1.694-3.3Z"></path><path fill="#65BC46" d="M24.897 40.889s-6.509-3.472-6.615-2.064c-.11 1.411 0 7.158.758 7.593.76.433 6.183-2.819 6.183-2.819l-.326-2.71zm2.493-.22s4.447-3.361 5.425-3.144c.975.22 1.192 7.158.324 7.49-.868.318-5.958-1.76-5.958-1.76l.21-2.585z"></path><path fill="#43A244" d="M23.321 41.257c0 2.276-.327 3.253.65 3.47.974.218 2.818 0 3.47-.433.651-.433.108-3.36-.106-3.907-.22-.542-4.014-.107-4.014.87Z"></path><path fill="#65BC46" d="M23.735 40.75c0 2.277-.326 3.254.65 3.47.972.221 2.818 0 3.47-.432.651-.435.107-3.36-.108-3.908-.218-.541-4.012-.105-4.012.87Z"></path><defs><linearGradient id="b" x1="13.993" x2="17.948" y1="16.936" y2="16.936" gradientUnits="userSpaceOnUse"><stop offset=".006" stop-color="#6176B9"></stop><stop offset=".691" stop-color="#394A9F"></stop></linearGradient><linearGradient id="c" x1="26.434" x2="30.036" y1="15.136" y2="15.136" gradientUnits="userSpaceOnUse"><stop offset=".006" stop-color="#6176B9"></stop><stop offset=".691" stop-color="#394A9F"></stop></linearGradient></defs></svg>