<svg xmlns="http://www.w3.org/2000/svg" viewBox="0 0 151.44 151.44" id="youtube"><g><g><circle cx="75.68" cy="75.77" r="64.59" fill="#e8e8e8"></circle><circle cx="75.68" cy="75.77" r="64.59" fill="#e8e8e8"></circle><g><path fill="#fa0f0c" d="M70.39,82.47V68l13.86,7.28Zm30.41-17s-.5-3.56-2-5.12a7.28,7.28,0,0,0-5.13-2.19c-7.18-.52-17.94-.52-17.94-.52h0s-10.76,0-17.94.52a7.28,7.28,0,0,0-5.13,2.19c-1.54,1.56-2,5.12-2,5.12a79.11,79.11,0,0,0-.51,8.36v3.91a79.11,79.11,0,0,0,.51,8.36s.5,3.56,2,5.12c1.95,2.06,4.51,2,5.65,2.21,4.1.4,17.43.52,17.43.52s10.77,0,17.95-.54a7.28,7.28,0,0,0,5.13-2.19c1.54-1.56,2-5.12,2-5.12a79.11,79.11,0,0,0,.51-8.36V73.81a79.11,79.11,0,0,0-.51-8.36Z"></path></g></g></g></svg>